<?xml version="1.0" encoding="UTF-8"?><!DOCTYPE svg PUBLIC "-//W3C//DTD SVG 1.1//EN" "http://www.w3.org/Graphics/SVG/1.1/DTD/svg11.dtd"><svg xmlns="http://www.w3.org/2000/svg"><symbol id="icon-logo" viewBox="3.5 0 142.75 142.75"><path fill="none" d="M40.212 131.086L5.574 71.092l34.638-59.995h69.276l34.638 59.995-34.638 59.994zM7.935 89.02l17.93-66.914 66.914-17.93 48.986 48.986-17.93 66.915-66.916 17.93zM92.78 138.007l-66.915-17.93-17.93-66.915L56.92 4.176l66.916 17.93 17.93 66.915zM75.71 140.36l-60.42-33.887-.86-69.27L73.99 1.82l60.42 33.89.86 69.27z"/></symbol><symbol id="icon-main-nav" viewBox="0 0 45 45"><path fill="none" d="M0 8.893h45M0 36h45M0 22.522h45"/></symbol><symbol id="icon-utility-nav" viewBox="0 0 45 45"><path d="M17.938 0h9.125v9.125h-9.125zM17.938 18h9.125v9.125h-9.125zM17.938 35.875h9.125V45h-9.125z"/></symbol></svg>